<?xml version="1.0" encoding="UTF-8" standalone="no"?>
<!DOCTYPE svg PUBLIC "-//W3C//DTD SVG 1.1//EN" "http://www.w3.org/Graphics/SVG/1.1/DTD/svg11.dtd">
<svg width="100%" height="100%" viewBox="0 0 785 568" version="1.1" xmlns="http://www.w3.org/2000/svg" xmlns:xlink="http://www.w3.org/1999/xlink" xml:space="preserve" xmlns:serif="http://www.serif.com/" style="fill-rule:evenodd;clip-rule:evenodd;stroke-linejoin:round;stroke-miterlimit:2;">
    <g transform="matrix(1,0,0,1,-160.5,-456.995281)">
        <g id="outline" transform="matrix(1,0,0,1,0,206)">
            <path d="M945.5,817.999L920.5,817.999C923.304,788.399 907.569,635.052 804.724,508.316C742.092,431.799 682.899,427.075 700.983,349.611C710.301,309.7 719.926,271.942 657.521,275.747C650.035,276.203 639.013,278.79 637.425,279.163C590.41,292.969 591.478,309.547 560.783,329.921C515.437,360.021 469.994,329.913 381.142,399.035C337.218,433.205 272.555,499.24 205.756,733.568C197.472,762.627 184.561,817.77 184.5,817.999L160.5,817.999C160.749,814.504 160.237,814.478 167.591,783.521C184.086,714.097 224.646,575.171 276.008,487.207C279.296,481.576 342.872,358.051 470.586,327.857C520.402,316.08 527.609,330.007 569.575,290.577C572.477,287.851 606.442,250.828 668.497,250.996C701.743,251.086 742.957,268.591 729.608,334.522C721.33,375.41 707.077,387.471 762.873,433.059C854.595,508 896.437,602.297 922.345,680.55C925.303,689.485 943.356,747.914 945.077,808.512C945.213,813.276 945.284,813.148 945.5,817.999Z" style="fill:rgb(2,2,1);"/>
        </g>
    </g>
</svg>
